<svg xmlns:dc="http://purl.org/dc/elements/1.1/" xmlns:cc="http://creativecommons.org/ns#" xmlns:rdf="http://www.w3.org/1999/02/22-rdf-syntax-ns#" xmlns:svg="http://www.w3.org/2000/svg" xmlns="http://www.w3.org/2000/svg" xmlns:sodipodi="http://sodipodi.sourceforge.net/DTD/sodipodi-0.dtd" xmlns:inkscape="http://www.inkscape.org/namespaces/inkscape" version="1.1" x="0px" y="0px" viewBox="0 0 100 125"><g transform="translate(0,-952.36218)"><path d="m 33.3125,960.36217 c 9.34765,3.15789 16.63238,6.31579 15.59375,20 -9.34765,-2.10527 -17.67101,-7.36843 -15.59375,-20 z m 29.6875,19 c 9,0 22,8 22,23.00003 0,21 -14,42 -22,42 -6,0 -11,-4 -15,-4 -4,0 -8,4 -14,4 -8,0 -17,-12 -19,-23 7,-5 12,-8 12,-17 0,-6.00001 -5,-12.00001 -11,-17.00003 3,-4 9,-8 15,-8 6,0 12.45208,4.74711 17,5 4,0 9,-5 15,-5 z" style="color:#000000;enable-background:accumulate;" fill="#000000" stroke="none" marker="none" visibility="visible" display="inline" overflow="visible"/></g><text x="0" y="115" fill="#000000" font-size="5px" font-weight="bold" font-family="'Helvetica Neue', Helvetica, Arial-Unicode, Arial, Sans-serif">Created by zidney</text><text x="0" y="120" fill="#000000" font-size="5px" font-weight="bold" font-family="'Helvetica Neue', Helvetica, Arial-Unicode, Arial, Sans-serif">from the Noun Project</text></svg>